<svg xmlns="http://www.w3.org/2000/svg" viewBox="0 0 825.7 153.33"><defs><style>.cls-1{fill:#a2ad00;}.cls-2{fill:#5a585a;}</style></defs><g id="Ebene_2" data-name="Ebene 2"><g id="Ebene_1-2" data-name="Ebene 1"><path class="cls-1" d="M545.73,84.53a48.17,48.17,0,0,1-5-.17v23.1H534V48.83q6.25-.26,13.81-.26c13.2,0,20.41,6.69,20.41,16.68C568.22,76.71,558.58,84.53,545.73,84.53ZM546.94,54c-2.52,0-4.43,0-6.25.09V78.71a50.14,50.14,0,0,0,5.3.35c9.46-.09,15.28-5.13,15.28-12.86C561.27,58.3,556.67,54,546.94,54Z"/><path class="cls-1" d="M604.88,108.24c-17.54,0-26-11.72-26-29.44,0-19.72,12.42-30.75,27.54-30.75,17.45,0,25.88,11.73,25.88,29.44C632.33,97.21,619.91,108.24,604.88,108.24Zm.78-54.46C595,53.78,586,62.47,586,77.58c0,14.77,6.43,24.84,19.55,24.84,10.68,0,19.63-8.6,19.63-23.79C625.21,64,618.78,53.78,605.66,53.78Z"/><path class="cls-1" d="M676.81,107.46l-20.58-27.1h-1.05v27.1H648.5V48.83c3.73-.17,7.55-.26,13.8-.26,11,0,19.37,3.82,19.37,14.77,0,10.42-8.6,16.15-18.32,16.59,1.74,2,3.73,4.17,5.21,6.08l16.85,21.45Zm-16-53.59a56.11,56.11,0,0,0-5.65.26V75.24c1,.08,2.7.17,5.3.17,9,0,14.25-4.6,14.25-11.12C674.73,56.65,669.86,53.87,660.83,53.87Z"/><path class="cls-1" d="M715.56,54.39v53.07H709V54.39H691.41V48.83h41.78v5.56Z"/><path class="cls-1" d="M776.36,107.46l-5-14.42H745.18L740,107.46h-6.86l21.71-58.63h7.38l21.72,58.63ZM760.81,64c-.95-2.87-1.82-5.48-2.52-7.91h-.17c-.69,2.43-1.56,5-2.43,7.73l-8.69,24h22.5Z"/><path class="cls-1" d="M797.3,107.46V48.83H804v53H825.7v5.64Z"/><path class="cls-2" d="M142.59,107V48.4h33V59.78H156.14V71.41h18.41v11H156.14V95.39h19.45V107Z"/><path class="cls-2" d="M187.68,88.79V78.19h21.88v10.6Z"/><path class="cls-2" d="M240.23,107.46c-6.17,0-12-.26-17.37-.52V48.57c4.6-.26,12.07-.52,20-.52,17.64,0,29.36,7.64,29.36,28.49C272.19,96.6,259.34,107.46,240.23,107.46Zm1.74-48a52.59,52.59,0,0,0-5.56.17V95.47a33.94,33.94,0,0,0,5,.35c9.29,0,16.24-5.73,16.24-18.24C257.69,66.55,254.13,59.43,242,59.43Z"/><path class="cls-2" d="M312.5,107,298.87,84.1h-.78V107H284.53V48.4c5-.35,11.3-.44,18.33-.44C316.67,48,325,52.91,325,65.33a16.58,16.58,0,0,1-12.68,16.25c1.65,2.26,3.21,4.43,4.52,6.6L329,107ZM301.82,59.08c-1.39,0-2.95.09-3.73.18v15a30.69,30.69,0,0,0,3.38.18c5.73,0,9.38-3,9.38-8C310.85,61.86,308.16,59.08,301.82,59.08Z"/><path class="cls-2" d="M339.09,107V48.4h13.55V107Z"/><path class="cls-2" d="M397.72,107H381.91L362,48.4h14.59L387,80.45c1,3.21,2.26,7.47,3,10.94h.17c.87-3.73,2.09-7.9,3.3-11.72L403.71,48.4h13.81Z"/><path class="cls-2" d="M426.91,107V48.4h33V59.78H440.46V71.41h18.42v11H440.46V95.39h19.46V107Z"/><path class="cls-2" d="M501.88,107,488.24,84.1h-.78V107H473.91V48.4c4.95-.35,11.29-.44,18.33-.44,13.81,0,22.14,4.95,22.14,17.37A16.58,16.58,0,0,1,501.7,81.58c1.65,2.26,3.22,4.43,4.52,6.6L518.38,107ZM491.19,59.08c-1.39,0-2.95.09-3.73.18v15a30.74,30.74,0,0,0,3.39.18c5.73,0,9.38-3,9.38-8C500.23,61.86,497.53,59.08,491.19,59.08Z"/><path class="cls-2" d="M118.23,80.25l-2-4.25c-1.84-4.13-4.82-6.32-10-7.33L92.45,66.13a10.12,10.12,0,0,1-1.87-.54L88.7,71.75a17,17,0,0,0,2.54.68L105,75c3.4.66,4.45,1.74,5.32,3.68l2,4.33v0a6.57,6.57,0,0,1,.6,5.66L111.75,93H98.3a8.69,8.69,0,0,1-16.89,2.75L79,103.66a15.23,15.23,0,0,0,24.32-4.27h6.74c4.28,0,7.26-2.21,8.39-6.23l.78-2.82A12.65,12.65,0,0,0,118.23,80.25Z"/><path class="cls-2" d="M29.19,101.56A8.64,8.64,0,0,1,20.52,93h-14l0-18.87c6.13,0,13.8-7.41,18.42-11.62,4.35-4,8.1-7.4,13.63-7.4H46l1.91-6.41H38.54c-8.06,0-13.36,4.83-18,9.09-4.3,3.92-8.69,9.9-13.37,9.9A6.9,6.9,0,0,0,0,75V92.59a6.67,6.67,0,0,0,5.86,6.8l.16,0h9.48A15.18,15.18,0,0,0,29.19,108c.35,0,.68,0,1,0L32.28,101A8.78,8.78,0,0,1,29.19,101.56Z"/><polyline class="cls-1" points="106.59 0 71.89 114.09 57.93 83.1 20.61 153.33 54.56 39.37 70.17 70.39 106.59 0"/></g></g></svg>